# xmcd
#
# Track frame offsets:
# 150
# 18586
# 39640
# 42183
# 56071
# 79111
# 99658
# 118915
# 139626
# 157184
# 178285
# 198642
# 217196
# 238281
#
# Disc length: 3484 seconds
#
#
# Revision: 0
# Processed by: cddbd v1.5.2PL0 Copyright (c) Steve Scherf et al.
# Submitted via: FreeRIP 2.96 
#
DISCID=d90d9a0e
DTITLE=樂Teen歌聲2 - 想•飛
DYEAR=1900
DGENRE=Christian Rock
TTITLE0=想•飛
TTITLE1=主愛不變遷
TTITLE2=Hallelujah (Prelude)
TTITLE3=哈利路亞
TTITLE4=願讚頌你
TTITLE5=仍是愛我的耶穌
TTITLE6=大手拉小手
TTITLE7=重拾
TTITLE8=真愛奇遇
TTITLE9=未變改
TTITLE10=彩虹橋
TTITLE11=想•飛(MMO)
TTITLE12=主愛不變遷(MMO)
TTITLE13=願讚頌你(MMO)
EXTD=
EXTT0=
EXTT1=
EXTT2=
EXTT3=
EXTT4=
EXTT5=
EXTT6=
EXTT7=
EXTT8=
EXTT9=
EXTT10=
EXTT11=
EXTT12=
EXTT13=
PLAYORDER=
